HIERARCHY
ROOT Hips
{
	OFFSET -3.958830 18.904000 13.208200
	CHANNELS 6 Xposition Yposition Zposition Zrotation Yrotation Xrotation 
	JOINT LHipJoint
	{
		OFFSET 0.000000 0.000000 0.000000
		CHANNELS 3 Zrotation Yrotation Xrotation
		JOINT LeftUpLeg
		{
			OFFSET 1.800000 -1.400000 0.085000
			CHANNELS 3 Zrotation Yrotation Xrotation
			JOINT LeftLeg
			{
				OFFSET 2.215000 -6.000000 0.000000
				CHANNELS 3 Zrotation Yrotation Xrotation
				JOINT LeftFoot
				{
					OFFSET 2.500000 -6.900000 0.000000
					CHANNELS 3 Zrotation Yrotation Xrotation
					JOINT LeftToeBase
					{
						OFFSET 0.200000 -0.500000 1.950000
						CHANNELS 3 Zrotation Yrotation Xrotation
						End Site
						{
							OFFSET 0.000000 0.000000 0.000000
						}
					}
				}
			}
		}
	}
	JOINT RHipJoint
	{
		OFFSET 0.000000 0.000000 0.000000
		CHANNELS 3 Zrotation Yrotation Xrotation
		JOINT RightUpLeg
		{
			OFFSET -1.800000 -1.400000 0.085000
			CHANNELS 3 Zrotation Yrotation Xrotation
			JOINT RightLeg
			{
				OFFSET -2.215000 -6.000000 0.000000
				CHANNELS 3 Zrotation Yrotation Xrotation
				JOINT RightFoot
				{
					OFFSET -2.500000 -6.900000 0.000000
					CHANNELS 3 Zrotation Yrotation Xrotation
					JOINT RightToeBase
					{
						OFFSET -0.200000 -0.500000 1.950000
						CHANNELS 3 Zrotation Yrotation Xrotation
						End Site
						{
							OFFSET 0.000000 0.000000 0.000000
						}
					}
				}
			}
		}
	}
	JOINT LowerBack
	{
		OFFSET 0.000000 0.000000 0.000000
		CHANNELS 3 Zrotation Yrotation Xrotation
		JOINT Spine
		{
			OFFSET -0.087000 1.940000 -0.288900
			CHANNELS 3 Zrotation Yrotation Xrotation
			JOINT Spine1
			{
				OFFSET 0.000000 1.950000 0.060000
				CHANNELS 3 Zrotation Yrotation Xrotation
				JOINT Neck
				{
					OFFSET 0.000000 0.000000 0.000000
					CHANNELS 3 Zrotation Yrotation Xrotation
					JOINT Neck1
					{
						OFFSET 0.000000 1.600000 0.340000
						CHANNELS 3 Zrotation Yrotation Xrotation
						JOINT Head
						{
							OFFSET 0.000000 1.667000 -0.240000
							CHANNELS 3 Zrotation Yrotation Xrotation
							End Site
							{
								OFFSET 0.000000 0.000000 0.000000
							}
						}
					}
				}
				JOINT LeftShoulder
				{
					OFFSET 0.000000 0.000000 0.000000
					CHANNELS 3 Zrotation Yrotation Xrotation
					JOINT LeftArm
					{
						OFFSET 2.700000 1.550000 -0.730000
						CHANNELS 3 Zrotation Yrotation Xrotation
						JOINT LeftForeArm
						{
							OFFSET 5.450000 0.000000 0.000000
							CHANNELS 3 Zrotation Yrotation Xrotation
							JOINT LeftHand
							{
								OFFSET 3.450000 0.000000 0.000000
								CHANNELS 3 Zrotation Yrotation Xrotation
								JOINT LeftHandIndex1
								{
									OFFSET 0.750000 0.000000 0.000000
									CHANNELS 3 Zrotation Yrotation Xrotation
									End Site
									{
										OFFSET 0.000000 0.000000 0.000000
									}
								}
							}
						}
					}
				}
				JOINT RightShoulder
				{
					OFFSET 0.000000 0.000000 0.000000
					CHANNELS 3 Zrotation Yrotation Xrotation
					JOINT RightArm
					{
						OFFSET -2.700000 1.550000 -0.730000
						CHANNELS 3 Zrotation Yrotation Xrotation
						JOINT RightForeArm
						{
							OFFSET -5.450000 0.000000 0.000000
							CHANNELS 3 Zrotation Yrotation Xrotation
							JOINT RightHand
							{
								OFFSET -3.450000 0.000000 0.000000
								CHANNELS 3 Zrotation Yrotation Xrotation
								JOINT RightHandIndex1
								{
									OFFSET -0.750000 0.000000 0.000000
									CHANNELS 3 Zrotation Yrotation Xrotation
									End Site
									{
										OFFSET 0.000000 0.000000 0.000000
									}
								}
							}
						}
					}
				}
			}
		}
	}
}
MOTION
Frames: 6
Frame Time: 0.016667
-0.021090 17.661840 -2.877400 -2.004481 -6.361682 -22.128961 -15.220526 13.632564 3.255946 2.720857 1.949010 9.027971 -5.651590 6.401998 8.930695 0.390436 4.979203 2.955671 0.386050 0.151330 0.457180 18.162728 -11.036084 2.616502 -7.351765 -0.885244 3.685028 9.410982 -7.959986 19.045400 -0.769945 -5.055203 2.657675 -0.080340 -0.137960 0.194070 -3.273567 -2.231310 -7.613644 9.307031 -0.591473 28.443376 -3.344690 1.226123 25.567174 3.799341 -3.779815 -14.635202 -9.882681 4.291069 45.593507 -1.886920 2.822290 -14.440130 -5.128674 -9.650643 9.616902 -27.538628 4.123775 -7.305883 134.319118 -41.428865 -103.316636 -3.507459 3.070415 0.510530 -0.184660 0.247630 0.019360 -1.418864 14.685632 10.051666 27.050886 7.545440 -12.324928 -122.597068 40.077835 -86.753440 2.266186 -1.499513 0.070120 0.014740 -0.125420 -0.156340 
-0.041550 17.666950 -2.786290 -1.647542 -5.997395 -22.755073 -15.229520 13.524045 3.241072 2.344871 2.168329 10.090260 -5.339037 6.444211 9.246987 0.363860 5.108017 2.926215 0.399210 0.169650 0.438320 18.176291 -11.067389 2.593109 -7.846027 -0.964402 4.396960 9.480515 -8.073255 18.906201 -0.780461 -5.191797 2.617660 -0.035560 -0.084780 0.196590 -3.292408 -2.016364 -7.542314 8.730753 -0.310713 25.398500 -2.905142 1.023959 26.158210 3.747868 -3.675771 -14.216265 -9.310067 4.520502 46.535757 -1.977230 2.799290 -13.124950 -5.425877 -10.945302 9.495552 -28.013396 0.294843 -7.443295 130.220558 -34.237712 -86.274746 -3.530272 3.016690 0.498220 -0.142250 0.218900 0.045560 -0.752018 16.176226 9.732615 26.935653 12.306060 -12.064651 -120.038870 32.850278 -73.416340 2.188476 -1.593615 0.040350 0.053220 -0.113700 -0.152710 
-0.062030 17.670960 -2.716070 -1.033641 -5.199548 -24.057152 -15.267166 13.421018 3.226185 2.192402 2.518927 11.522671 -5.439615 6.633051 9.502005 0.365826 5.304686 2.869755 0.425540 0.217530 0.438310 18.168322 -11.051671 2.555737 -8.916647 -1.098609 6.065058 9.809089 -8.330545 18.658673 -0.812316 -5.435235 2.539491 0.025700 -0.042530 0.194080 -3.247305 -1.909448 -7.456595 7.785596 0.140109 23.701463 -2.555754 1.047649 27.211568 3.636840 -3.470479 -13.320626 -8.518802 4.404097 46.433560 -2.345620 2.712570 -12.937460 -6.039588 -12.557102 8.811868 -25.688715 -4.506989 -7.637926 126.716638 -28.645714 -72.554833 -3.566546 2.997729 0.461140 -0.100080 0.190610 0.061530 0.234683 17.940655 9.379570 26.652546 16.077147 -12.414742 -119.591397 25.156519 -62.629771 2.133837 -1.743034 0.023910 0.093420 -0.110030 -0.145360 
-0.076880 17.673070 -2.663220 -1.045958 -4.355083 -25.609085 -15.313065 13.352261 3.217996 2.724444 2.846087 13.619668 -5.355196 6.733210 9.151052 0.365361 5.540138 2.783450 0.507080 0.300660 0.480250 18.159540 -10.984718 2.511644 -9.339353 -1.219487 7.923423 9.801066 -8.590152 19.022547 -0.889232 -5.690149 2.426057 0.102680 -0.050600 0.227040 -3.188106 -1.926564 -7.360870 7.656995 0.381601 22.439489 -2.500656 0.882285 29.136997 3.745175 -3.330989 -12.652377 -8.289195 4.230293 46.251104 -2.409750 2.311310 -14.367570 -6.727960 -15.423272 8.511314 -22.723465 -9.545250 -8.298359 124.559047 -22.813011 -61.517573 -3.574200 3.048613 0.466180 -0.092730 0.200920 0.081650 0.815202 20.598998 9.424085 25.736710 17.915966 -13.993468 -120.301641 17.929609 -54.046227 2.083923 -1.928696 0.030910 0.093670 -0.128390 -0.154000 
-0.097120 17.658680 -2.605570 -0.615285 -4.418241 -27.313784 -15.440217 13.403573 3.219072 2.857123 3.251845 15.483369 -4.917712 6.887762 9.621213 0.344952 5.795709 2.692612 0.566860 0.361630 0.529300 18.062193 -10.811567 2.486606 -10.127194 -1.248825 10.260224 10.191516 -8.862534 18.781255 -0.965990 -5.916443 2.327535 0.172140 -0.058420 0.232420 -2.874360 -2.293622 -7.303280 6.401429 0.980486 21.682290 -1.812886 1.056281 30.819509 4.106398 -3.825248 -12.352745 -9.358450 4.549418 46.009135 -2.891570 1.955150 -17.179940 -8.324687 -18.767615 8.578509 -20.479924 -12.074829 -9.972801 124.490094 -16.589881 -53.070541 -3.583569 3.063695 0.502110 -0.102120 0.219340 0.084290 1.781353 24.785727 9.739617 22.914509 19.170983 -16.385298 -121.712563 10.584268 -45.465305 2.052298 -2.062808 0.008150 0.141470 -0.130230 -0.173820 
-0.097380 17.637640 -2.543290 -0.913393 -5.318102 -28.568055 -15.369927 13.299693 3.167172 3.263619 3.379666 16.744744 -4.414461 7.015735 10.739614 0.364958 5.892175 2.629212 0.649300 0.476550 0.554290 18.133820 -10.861399 2.571965 -10.202950 -1.457766 12.512454 10.173426 -8.901235 17.986881 -1.052591 -6.092715 2.256745 0.236640 -0.090630 0.234100 -3.071468 -2.032201 -7.275600 8.441771 1.061897 20.282558 -2.653090 0.713731 32.214878 4.419199 -4.780922 -12.975519 -11.841782 5.638383 47.613581 -1.600020 1.198400 -18.019080 -10.888880 -23.278129 9.468464 -17.532036 -12.354736 -11.986818 125.427573 -11.241918 -46.591177 -3.572447 3.140694 0.496690 -0.129910 0.247440 0.101300 3.923391 29.719580 10.537139 19.212488 18.721743 -18.508754 -124.500828 3.869760 -37.313788 2.079589 -2.251852 0.047260 0.140690 -0.161670 -0.156160 
